<svg id="Layer_1" data-name="Layer 1" xmlns="http://www.w3.org/2000/svg" viewBox="0 0 1000 1000"><defs><style>.cls-1{fill:#ac1e2d;}.cls-2{fill:#fff;}</style></defs><rect class="cls-1" x="129.76" y="145.86" width="740.48" height="708.28"/><path class="cls-2" d="M272,298.6h-2.74c-.15,3.19-1.83,4.56-5,4.56-6.29,0-16.4-7.5-27.14-7.75h-1c-30.92.29-49.6,30.85-49.6,57.8,0,27.23,17.94,54.16,48.07,54.16,18.26,0,25.1-8.67,30-8.67,3.2,0,5,4,5.63,6.24h2.28V367.66h-2.28l-.91,5.18c-2.13,12.32-13.54,31.79-33.16,31.79-17.35,0-24-16.27-24-53.24,0-38.8,9.13-53.25,24.49-53.25,17.34,0,30.27,20.84,32.7,36.36H272V298.6Z"/><path class="cls-2" d="M355,392h-2.7c0,3.91-1.65,8.41-5.24,8.41-2.71,0-3.46-2.85-3.46-7.51V358.42c0-17.1-16.05-21.3-31.5-21.3-15,0-26,7.35-26,15.75,0,5.25,3,9.76,9.76,9.76,5.69,0,9.14-3.75,9.14-9,0-7.21-7.49-6.76-7.65-9.31-.15-3.3,8.56-4.5,13.66-4.5,11.25,0,12.75,5.55,12.75,14.55V367l-14.7,1.2c-13.66,1.05-28.51,4.66-28.51,20.26,0,13.06,11.7,18.3,23.25,18.3,5.86,0,16.21-2.24,20.11-9.45,2.7,6.31,8.25,9.45,15,9.45,9.74,0,16-5.84,16-14.7Zm-31.2-4.95c-.3,7.95-4.8,15.16-11.86,15.16-10.19,0-10.65-9.31-10.65-17.11,0-8,.91-13.2,10.65-14.25l11.86-1.21v17.41Z"/><path class="cls-2" d="M355.93,404.93h44.86v-2.69H387V364c0-11.56,3.6-19.66,13.06-23.86h.61A11.53,11.53,0,0,0,397,349c0,5.85,4.36,9.76,10.21,9.76,7.2,0,11.4-5.26,11.4-11,0-7.2-4.8-11.55-11.85-11.55-9.6,0-17,6.6-19.81,14.11h-.29V335c-3.15,3.9-14.26,3.9-20.4,3.9H355.93v2.7h10.36v60.62H355.93v2.69Z"/><path class="cls-2" d="M421,404.93H461v-2.69h-8.84V361.12c0-7.65,7.49-18.6,15.9-18.6,4.35,0,8.85,1.8,8.85,12.3v47.42H468.3v2.69h39.62v-2.69H497.57V360.37c0-16.2-6.91-23.25-21.16-23.25-10.05,0-20,5.25-24,14h-.29V335c-3.16,3.9-14.26,3.9-20.41,3.9H421v2.7H431.4v60.62H421v2.69Z"/><path class="cls-2" d="M645.81,343.87c0-5.25-5.71-7.95-10.2-7.95-5,0-8.71,3.3-11.56,6.6-4.35-3.15-10.35-5.4-18.76-5.4-12.6,0-26.11,8.25-26.11,21.91,0,8.24,4.5,14.7,12.46,18.3v.3c-5.85.75-15,4.8-15,17.26,0,7.49,3.44,13.19,9.75,15v.3c-6,1.65-12.91,7.65-12.91,14.85,0,11.11,13.06,19.66,29.72,19.66,20.85,0,34.5-14.11,34.5-32.41,0-14.55-7.19-21.15-21.9-20.85H590.89c-3.75,0-8.85-.16-8.85-4.21,0-3.75,6.45-7.8,12.15-7.8a19.21,19.21,0,0,1,4.95.9,19.07,19.07,0,0,0,6.15.9c12.91,0,26.71-7.35,26.71-21.61,0-4.8-2.26-11.55-6.45-15.15,2.7-2.7,4.05-6,9.9-6.75v.3c-3.14,1.65-4.05,3.6-4.05,6.6a6.69,6.69,0,0,0,6.91,6.9c4.79,0,7.5-3.6,7.5-7.65Zm-57,66.47h23.56c15,0,20,1.34,20,10.5,0,11-13.52,21.16-28.66,21.16-13.51,0-20.86-9.16-21.17-16.36,0-6.6,2.27-10.95,6.31-15.3ZM614.89,359c-.14,18.45-4,19.5-9.45,19.5-6,0-9.15-1.95-9.15-20,0-12.16,1.35-18.75,9.15-18.75,7.06,0,9.31,1.95,9.45,19.21Z"/><path class="cls-2" d="M648.21,404.93h41.41v-2.69H679.26V335c-3.15,3.9-14.25,3.9-20.4,3.9H648.21v2.7h10.35v60.62H648.21v2.69Z"/><path class="cls-2" d="M658.22,315.62a10.69,10.69,0,1,0,10.69-10.7,10.64,10.64,0,0,0-10.69,10.7Z"/><path class="cls-2" d="M711.73,368.62h41.4c-.15-16.2-15.16-31.8-30.9-31.5-17.71,0-33,15.3-33,35.56,0,19.5,14.25,34.06,33.46,34.06,18.44,0,27.6-11.41,30.9-26.26h-2.7c-3.3,13.95-12,22.66-23.71,22.66-13.94,0-15.44-11.71-15.44-21.91V368.62Zm.32-2.7-.32-12.9c0-10,4.34-13.2,9.45-13.2,7.19,0,9.45,4.95,9.45,13.2v12.9Z"/><path class="cls-2" d="M185,536.88h29.1v-2.7H212c-8.09,0-11.25-2.11-11.25-14.25V434.85h.31l35.85,102H241l35-100.23h.3v97.53h-12.9v2.7h47.56v-2.7H299.64V434h11.25v-2.7H274.73l-25.36,72.46h-.29l-24.91-72.46H185.76V434h11.4v87.32c0,6.45-1.5,12.91-11.55,12.91H185v2.7Z"/><path class="cls-2" d="M331.93,500.57h41.41c-.14-16.21-15.15-31.81-30.91-31.51-17.7,0-33,15.3-33,35.56,0,19.51,14.26,34.06,33.46,34.06,18.46,0,27.61-11.41,30.91-26.25h-2.7c-3.3,13.94-12,22.65-23.71,22.65-13.95,0-15.45-11.71-15.45-21.9V500.57Zm0-2.7V485c0-10,4.35-13.2,9.45-13.2,7.21,0,9.46,4.95,9.46,13.2v12.91Z"/><path class="cls-2" d="M373.8,536.88h41.4v-2.7H404.85V426.75c-2.7,4.5-11,4.5-21.61,4.5H373.8V434h10.35V534.18H373.8v2.7Z"/><path class="cls-2" d="M417.9,536.88h41.41v-2.7H449V426.75c-2.7,4.5-10.95,4.5-21.61,4.5H417.9V434h10.36V534.18H417.9v2.7Z"/><path class="cls-2" d="M529.36,503.87c0-20.56-15.9-34.8-35.7-34.8s-35.72,14.24-35.72,34.8,15.91,34.8,35.72,34.8,35.7-14.25,35.7-34.8ZM506,520.08c0,11.25-4.65,15.9-12.3,15.9s-12.3-4.65-12.3-15.9V487.67c0-11.25,4.64-15.91,12.3-15.91s12.3,4.66,12.3,15.91v32.41Z"/><path class="cls-2" d="M528.79,536.88H568.7v-2.7h-8.86V493.07c0-7.66,7.51-18.6,15.9-18.6,4.36,0,8.86,1.79,8.86,12.29v47.42H576v2.7h39.62v-2.7H605.31V492.32c0-16.21-6.91-23.26-21.16-23.26-10,0-19.95,5.26-24,13.95h-.3V467c-3.15,3.9-14.25,3.9-20.4,3.9H528.79v2.7h10.34v60.62H528.79v2.7Z"/><path class="cls-2" d="M185.31,563.1H197v68c0,23.26,16.06,37.36,40.52,37.36,27.61,0,39.6-14.55,39.6-36.6V575.7c0-8.69,2.4-12.6,7.81-12.6h3.9v-2.7H259.13v2.7h4.35c7.65,0,10,3.91,10,12.6v57c0,20.41-12.3,30.31-26.86,30.31-21.9,0-26.25-14.71-26.25-33.91v-66h12.15v-2.7H185.31v2.7Z"/><path class="cls-2" d="M282.93,666h39.92v-2.7H314V622.22c0-7.65,7.5-18.61,15.9-18.61,4.35,0,8.86,1.81,8.86,12.31v47.41h-8.56V666h39.62v-2.7H359.46V621.47c0-16.2-6.91-23.27-21.16-23.27-10.06,0-19.95,5.26-24,14H314V596.11c-3.15,3.9-14.25,3.9-20.4,3.9H282.93v2.7h10.35v60.62H282.93V666Z"/><path class="cls-2" d="M372.06,666h41.41v-2.7H403.11V596.11C400,600,388.86,600,382.7,600H372.06v2.7h10.35v60.62H372.06V666Z"/><path class="cls-2" d="M382.06,576.72a10.7,10.7,0,1,0,10.7-10.7,10.65,10.65,0,0,0-10.7,10.7Z"/><path class="cls-2" d="M443.93,667.83h4l22.21-52.52c3.75-8.4,6.9-12.45,10.35-12.6h1.35V600h-23.4v2.7h2.85c4.35,0,6.9,1.65,6.9,5.56,0,2.4-.75,5.7-2.55,9.89l-10.2,24-17.56-39.47h9V600H409.27v2.7h6.44l28.22,65.12Z"/><path class="cls-2" d="M499.6,629.72H541c-.15-16.2-15.15-31.81-30.91-31.5-17.7,0-33,15.3-33,35.56,0,19.5,14.26,34.05,33.46,34.05,18.46,0,27.61-11.4,30.91-26.26h-2.7c-3.29,14-12,22.66-23.7,22.66-14,0-15.45-11.7-15.45-21.9V629.72Zm0-2.7v-12.9c0-10.06,4.34-13.21,9.44-13.21,7.2,0,9.46,5,9.46,13.21V627Z"/><path class="cls-2" d="M541.28,666h44.87v-2.7H572.34V625.07c0-11.55,3.61-19.65,13.06-23.85H586a11.52,11.52,0,0,0-3.6,8.85c0,5.85,4.36,9.75,10.21,9.75,7.2,0,11.4-5.25,11.4-11,0-7.2-4.79-11.55-11.85-11.55-9.61,0-16.95,6.6-19.81,14.11H572V596.11c-3.15,3.9-14.25,3.9-20.41,3.9H541.28v2.7h10.35v60.62H541.28V666Z"/><path class="cls-2" d="M607.55,667.83h2.71c.74-2.4,3.14-3.6,6.14-3.6,3.9,0,8.56,3.6,17,3.6,14.26,0,24-12.3,24-24.6,0-18.31-12.6-19.67-28.66-21.92-8.41-1.2-13.66-2.54-13.66-9.14,0-7.06,6.16-11.26,14.25-11.26,11.26,0,17.26,8.85,21,18.61h2.4l-.89-21.3h-2.26c0,1.79-1.8,3.29-4.64,3.29-4.81,0-8.71-3.29-15.62-3.29-15,0-22.35,12.75-22.35,22.34,0,19.36,14.71,21,26.11,22.36,10.81,1.36,15.31,2.41,15.31,9.31,0,7.95-6.6,12.9-14.71,12.9-11.4,0-20.71-11.56-23.4-22.51h-2.71v25.21Z"/><path class="cls-2" d="M659.72,666h41.42v-2.7H690.78V596.11c-3.14,3.9-14.25,3.9-20.4,3.9H659.72v2.7h10.36v60.62H659.72V666Z"/><path class="cls-2" d="M669.74,576.72A10.7,10.7,0,1,0,680.43,566a10.64,10.64,0,0,0-10.69,10.7Z"/><path class="cls-2" d="M708.31,602.71v48c0,14.25,12.3,17.1,16.5,17.1,9.15,0,15.31-3.75,20-11.55l-2-1c-1.8,2.7-4.2,6.3-7.94,6.3-3.91,0-5.86-2.85-5.86-7.8v-51h13.8V600H729V567.75h-2.7c0,15.9-10.8,32.26-26,32.26v2.7Z"/><path class="cls-2" d="M742.36,602.71h6.31l28.81,66.77-.91,6c-.59,4.35-3.59,21.47-8.55,23V698a18.23,18.23,0,0,0,.76-5.1c0-5.1-3.61-9-9.91-9-6.6,0-9.91,4.5-9.91,10.19,0,6.17,5.7,10.51,12.31,10.51,11.86,0,14.85-13.05,16.21-19.35l4-18.31,7.8-19.5L804.18,614c3.3-7.66,6.3-11.26,9.61-11.26H815V600H791.57v2.7h3.16c4.8,0,6.9,2.71,6.9,5.25,0,3-2,8-4.35,13.66l-8.7,20.55L771,602.71h9.89V600H742.36v2.7Z"/><path class="cls-2" d="M531.62,368.62H573c-.14-16.2-15.16-31.8-30.9-31.5-17.71,0-33,15.3-33,35.56,0,19.5,14.25,34.06,33.46,34.06,18.45,0,27.61-11.41,30.9-26.26h-2.69c-3.31,13.95-12,22.66-23.71,22.66-14,0-15.46-11.71-15.46-21.91V368.62Zm.33-2.7-.33-12.9c0-10,4.35-13.2,9.46-13.2,7.2,0,9.45,4.95,9.45,13.2v12.9Z"/></svg>